v 3.11743e-017 -0.509115 0.480924
v 3.01826e-017 -0.49292 0.486332
v 3.01826e-017 -0.49292 -0.486332
v 3.11743e-017 -0.509115 -0.480924
v 3.15054e-017 -0.514523 -0.464701
v 3.15054e-017 -0.514523 0.464701
v 0.0324185 -0.514523 -0.464701
v 0.0324185 -0.514523 0.464701
v -2.75084e-017 0.449247 -0.486332
v 0.0324185 0.449247 -0.486332
v 0.0324185 -0.49292 -0.486332
v -3.07491e-017 0.50217 -0.43371
v -3.07491e-017 0.50217 0.464701
v 0.0324185 0.50217 0.464701
v 0.0324185 0.50217 -0.43371
v -2.94263e-017 0.480567 0.486332
v 0.0324185 -0.49292 0.486332
v 0.0324185 0.480567 0.486332
v 0.0324185 -0.509115 -0.480924
v 0.0324185 -0.509115 0.480924
v -3.04179e-017 0.496763 0.480924
v 0.0324185 0.496763 0.480924
v 0.0324185 -0.404119 -0.456823
v 0.0324185 -0.443043 -0.456823
v 0.0324185 -0.404119 -0.406836
v 0.0324185 -0.443043 -0.406836
v 2.47451e-017 -0.404119 -0.406836
v 2.71286e-017 -0.443043 -0.406836
v 2.47451e-017 -0.404119 -0.456823
v 2.71286e-017 -0.443043 -0.456823
vn -0.2745 -1.68083e-017 0
vn 1.65915e-017 -0.270959 0.0439749
vn 1.65915e-017 -0.270959 -0.0439749
vn 2.69269e-018 -0.0439749 -0.270959
vn 0 0 -0.2745
vn -1.68083e-017 0.2745 0
vn -1.65915e-017 0.270959 0.0439749
vn -2.69269e-018 0.0439749 0.270959
vn 2.69269e-018 -0.0439749 0.270959
vn 1.18851e-017 -0.194099 -0.194099
vn 1.18851e-017 -0.194099 0.194099
vn -1.18482e-017 0.193495 -0.194703
vn -1.18851e-017 0.194099 0.194099
vn 0.2745 1.68083e-017 0
vn 0 0 0.2745
vn 1.68083e-017 -0.2745 0
vt 0.0289 0.993
vt 0.0264 0.9854
vt 0.4833 0.9854
vt 0.4807 0.993
vt 0.4731 0.9955
vt 0.0365 0.9955
vt 0.0365 0.0036
vt 0.4731 0.0036
vt 0.4731 0.0188
vt 0.0365 0.0188
vt 0.5009 0.0321
vt 0.5009 0.4747
vt 0.4856 0.4747
vt 0.4856 0.0321
vt 0.4586 0.516
vt 0.0365 0.516
vt 0.0365 0.5008
vt 0.4586 0.5008
vt 0.0061 0.4886
vt 0.0061 0.0313
vt 0.0213 0.0313
vt 0.0213 0.4886
vt 0.4807 0.0036
vt 0.4807 0.0188
vt 0.0289 0.0188
vt 0.0289 0.0036
vt 0.5009 0.4996
vt 0.4856 0.4996
vt 0.0289 0.516
vt 0.0289 0.5008
vt 0.4856 0.0245
vt 0.5009 0.0245
vt 0.0061 0.0237
vt 0.0213 0.0237
vt 0.0213 0.4962
vt 0.0061 0.4962
vt 0.0289 0.5204
vt 0.0365 0.5179
vt 0.4586 0.5179
vt 0.4833 0.5428
vt 0.0264 0.5281
vt 0.0365 0.4996
vt 0.0289 0.497
vt 0.0264 0.4894
vt 0.4586 0.4996
vt 0.4833 0.4747
vt 0.0289 0.0245
vt 0.0365 0.0219
vt 0.4731 0.0219
vt 0.4807 0.0245
vt 0.4833 0.0321
vt 0.0264 0.0321
vt 0.4694 0.0738
vt 0.4694 0.0555
vt 0.4459 0.0738
vt 0.4459 0.0555
vt 0.4459 0.9437
vt 0.4459 0.962
vt 0.4694 0.9437
vt 0.4694 0.962
vt 0.0219 0.508
vt 0.0219 0.5262
vt 0.0067 0.5262
vt 0.0067 0.508
vt 0.0213 0.5393
vt 0.0213 0.5628
vt 0.006 0.5628
vt 0.006 0.5393
vt 0.0233 0.5719
vt 0.0233 0.5901
vt 0.0081 0.5901
vt 0.0081 0.5719
vt 0.0202 0.7265
vt 0.0202 0.75
vt 0.0049 0.75
vt 0.0049 0.7265
f 1/1/1 2/2/1 3/3/1
f 3/3/1 4/4/1 5/5/1
f 1/1/1 3/3/1 5/5/1
f 6/6/1 1/1/1 5/5/1
f 6/7/2 5/8/3 7/9/3
f 7/9/3 8/10/2 6/7/2
f 3/11/4 9/12/5 10/13/5
f 10/13/5 11/14/4 3/11/4
f 12/15/6 13/16/7 14/17/7
f 14/17/7 15/18/6 12/15/6
f 16/19/8 2/20/9 17/21/9
f 17/21/9 18/22/8 16/19/8
f 4/23/10 19/24/10 7/9/3
f 7/9/3 5/8/3 4/23/10
f 20/25/11 1/26/11 6/7/2
f 6/7/2 8/10/2 20/25/11
f 9/12/12 12/27/12 15/28/12
f 15/28/12 10/13/12 9/12/12
f 21/29/13 22/30/13 14/17/7
f 14/17/7 13/16/7 21/29/13
f 3/11/4 11/14/4 19/31/10
f 19/31/10 4/32/10 3/11/4
f 17/21/9 2/20/9 1/33/11
f 1/33/11 20/34/11 17/21/9
f 16/19/8 18/22/8 22/35/13
f 22/35/13 21/36/13 16/19/8
f 21/37/1 13/38/1 12/39/1
f 21/37/1 12/39/1 9/40/1
f 16/41/1 21/37/1 9/40/1
f 14/42/14 22/43/14 18/44/14
f 15/45/14 14/42/14 18/44/14
f 10/46/14 15/45/14 18/44/14
f 20/47/14 8/48/14 7/49/14
f 7/49/14 19/50/14 11/51/14
f 20/47/14 7/49/14 11/51/14
f 17/52/14 20/47/14 11/51/14
f 11/51/14 10/46/14 23/53/14
f 23/53/14 24/54/14 11/51/14
f 10/46/14 18/44/14 25/55/14
f 25/55/14 23/53/14 10/46/14
f 18/44/14 17/52/14 26/56/14
f 26/56/14 25/55/14 18/44/14
f 17/52/14 11/51/14 24/54/14
f 24/54/14 26/56/14 17/52/14
f 2/2/1 16/41/1 27/57/1
f 27/57/1 28/58/1 2/2/1
f 16/41/1 9/40/1 29/59/1
f 29/59/1 27/57/1 16/41/1
f 9/40/1 3/3/1 30/60/1
f 30/60/1 29/59/1 9/40/1
f 3/3/1 2/2/1 28/58/1
f 28/58/1 30/60/1 3/3/1
f 24/61/15 23/62/15 29/63/15
f 29/63/15 30/64/15 24/61/15
f 23/65/16 25/66/16 27/67/16
f 27/67/16 29/68/16 23/65/16
f 25/69/5 26/70/5 28/71/5
f 28/71/5 27/72/5 25/69/5
f 26/73/6 24/74/6 30/75/6
f 30/75/6 28/76/6 26/73/6
