v -0.5 -0.5 -0.5
v 0.5 -0.5 -0.5
v 0.5 -0.5 0.5
v -0.5 -0.5 0.5
v -0.5 0.5 -0.5
v 0.5 0.5 -0.5
v 0.5 0.5 0.5
v -0.5 0.5 0.5
vn 1 0 0
vn -1 0 0
vn 0 0 1
vn 0 1 0
vn 0 0 -1
vn 0 -1 0
vt 0.0121951 0.0121951
vt 0.987805 0.0121951
vt 0.0121951 0.987805
vt 0.987805 0.987805
vt 0.987805 0.987805
f 3/1/1 2/2/1 7/3/1
f 5/3/2 4/2/2 8/4/2
f 4/1/3 3/2/3 8/3/3
f 8/3/3 3/2/3 7/4/3
f 6/1/4 5/2/4 7/3/4
f 7/3/4 5/2/4 8/4/4
f 5/5/5 6/3/5 1/2/5
f 6/4/1 7/3/1 2/2/1
f 1/1/2 4/2/2 5/3/2
f 6/3/5 2/1/5 1/2/5
f 4/3/6 1/1/6 2/2/6
f 4/3/6 2/2/6 3/5/6
